<?xml version="1.0" standalone="no"?>
<!DOCTYPE svg PUBLIC "-//W3C//DTD SVG 20010904//EN"
 "http://www.w3.org/TR/2001/REC-SVG-20010904/DTD/svg10.dtd">
<svg version="1.0" xmlns="http://www.w3.org/2000/svg"
 width="640.000000pt" height="640.000000pt" viewBox="0 0 640.000000 640.000000"
 preserveAspectRatio="xMidYMid meet">

<g transform="translate(0.000000,640.000000) scale(0.100000,-0.100000)"
fill="#000000" stroke="none">
<path d="M0 3200 l0 -3200 3200 0 3200 0 0 3200 0 3200 -3200 0 -3200 0 0
-3200z m1785 1598 c5 -18 193 -697 217 -787 52 -197 258 -935 262 -938 6 -6
14 7 201 342 160 286 307 549 554 990 62 110 116 204 120 208 5 5 56 -76 115
-180 400 -705 772 -1353 777 -1353 3 0 74 251 159 558 84 306 162 585 172 620
l19 62 120 0 c93 0 120 -3 116 -12 -2 -7 -59 -209 -126 -448 -68 -239 -180
-640 -251 -890 -71 -250 -179 -635 -241 -855 -61 -220 -115 -404 -119 -408 -4
-5 -89 133 -188 305 -177 308 -393 682 -488 847 -27 46 -54 86 -59 88 -6 2
-150 -241 -320 -539 -410 -719 -406 -713 -415 -697 -4 8 -44 149 -90 314 -103
376 -120 435 -128 435 -4 0 -47 -72 -95 -159 l-89 -158 -121 -6 c-66 -3 -124
-4 -128 -1 -4 2 31 73 78 157 152 271 230 411 252 454 l21 42 -24 83 c-13 46
-40 142 -60 213 -19 72 -74 270 -122 440 -48 171 -97 348 -109 395 -12 47 -57
209 -100 360 -98 351 -138 500 -134 505 2 2 47 8 99 13 52 5 101 10 108 11 7
0 14 -5 17 -11z m2741 -2594 c174 -306 313 -559 308 -563 -11 -10 -175 -51
-201 -51 -14 0 -83 112 -263 427 -135 234 -246 437 -248 451 -4 29 69 302 80
296 4 -2 149 -254 324 -560z"/>
<path d="M3103 4083 c-22 -37 -62 -108 -90 -158 -28 -49 -89 -157 -135 -240
-134 -237 -256 -452 -393 -695 -72 -127 -127 -236 -127 -250 1 -26 117 -448
126 -458 3 -3 8 -3 10 -1 2 2 144 252 316 554 172 303 318 556 324 563 10 10
50 -54 186 -290 187 -328 365 -637 437 -761 25 -43 49 -75 53 -70 5 4 36 112
70 238 34 127 65 241 70 255 17 46 60 209 59 222 -1 15 -9 -6 -45 -125 -15
-49 -30 -85 -34 -80 -7 7 -200 344 -643 1118 -66 116 -126 218 -133 228 -11
17 -16 12 -51 -50z"/>
<path d="M4016 3045 c-3 -9 -6 -22 -5 -28 0 -7 5 -1 10 12 5 13 8 26 5 28 -2
2 -6 -3 -10 -12z"/>
</g>
</svg>
